<?xml version="1.0" standalone="no"?><!DOCTYPE svg PUBLIC "-//W3C//DTD SVG 1.1//EN" "http://www.w3.org/Graphics/SVG/1.1/DTD/svg11.dtd"><svg t="1602757834952" class="icon" viewBox="0 0 1024 1024" version="1.1" xmlns="http://www.w3.org/2000/svg" p-id="2515" xmlns:xlink="http://www.w3.org/1999/xlink" width="200" height="200"><defs><style type="text/css"></style></defs><path d="M812.218 914.618H211.782a146.618 146.618 0 0 1-102.4-48.873 160.582 160.582 0 0 1-39.564-107.054V328.145A139.636 139.636 0 0 1 211.782 188.51h23.273l18.618-9.309a46.545 46.545 0 0 0 13.963-18.618l27.928-53.527a76.8 76.8 0 0 1 30.254-27.928 62.836 62.836 0 0 1 37.237-9.309h295.563a65.164 65.164 0 0 1 39.564 9.31h2.327a67.49 67.49 0 0 1 27.927 27.927l27.928 55.854a41.89 41.89 0 0 0 13.963 16.291l18.618 9.31h23.273a139.636 139.636 0 0 1 141.964 139.635v430.546a160.582 160.582 0 0 1-41.891 107.054 146.618 146.618 0 0 1-100.073 48.873zM211.782 237.382a90.764 90.764 0 0 0-67.491 25.6 93.09 93.09 0 0 0-27.927 65.163v430.546a114.036 114.036 0 0 0 27.927 76.8 100.073 100.073 0 0 0 67.49 34.909h600.437a100.073 100.073 0 0 0 67.491-34.91 114.036 114.036 0 0 0 27.927-76.8V328.146a93.09 93.09 0 0 0-27.927-67.49 90.764 90.764 0 0 0-67.49-25.6h-23.274a83.782 83.782 0 0 1-44.218-13.964 88.436 88.436 0 0 1-30.254-34.91L686.545 128l-11.636-9.31H349.091a32.582 32.582 0 0 0-13.964 11.637l-25.6 53.528a90.764 90.764 0 0 1-30.254 37.236 83.782 83.782 0 0 1-44.218 16.29zM512 774.982a242.036 242.036 0 1 1 242.036-242.037A242.036 242.036 0 0 1 512 774.982z m0-439.855a195.49 195.49 0 1 0 195.49 195.491A195.49 195.49 0 0 0 512 335.128z" p-id="2516" fill="#00bff3"></path></svg>